<svg width="46" height="49" viewBox="0 0 46 49" fill="none" xmlns="http://www.w3.org/2000/svg">
<rect width="46" height="49" rx="8" fill="#444CF7"/>
<g clip-path="url(#clip0_35_21)">
<path d="M20.309 7.99979C22.436 7.99979 24.5639 7.99979 26.6909 7.99979C26.7308 8.0175 26.7681 8.04317 26.8099 8.05291C28.0079 8.33979 28.7459 9.13401 28.944 10.3497C29.031 10.8845 29.1198 11.4184 29.2113 11.9523C29.4413 13.2919 30.6607 14.002 31.9457 13.5398C32.4973 13.3415 33.0408 13.121 33.5932 12.9254C34.8623 12.4747 36.158 12.9271 36.8392 14.0853C37.7814 15.6861 38.7104 17.2949 39.6278 18.9108C40.2948 20.0857 40.047 21.4147 39.0177 22.2975C38.5639 22.6862 38.0914 23.0536 37.6367 23.4415C36.6225 24.3065 36.6225 25.6913 37.6367 26.5581C38.0745 26.9318 38.5275 27.2877 38.9671 27.6587C40.0621 28.584 40.3037 29.9068 39.5941 31.1455C38.6926 32.7188 37.7859 34.2896 36.872 35.8559C36.1544 37.084 34.8658 37.5382 33.5301 37.0485C32.9795 36.8467 32.4369 36.6253 31.8827 36.4349C30.6509 36.0099 29.436 36.7333 29.2157 38.0136C29.1216 38.5582 29.0328 39.1036 28.944 39.649C28.745 40.8656 28.0079 41.6589 26.8099 41.9458C26.7681 41.9555 26.7308 41.9812 26.6909 41.9998H20.309C20.269 41.9812 20.2317 41.9564 20.19 41.9458C18.9902 41.658 18.253 40.8647 18.055 39.649C17.9679 39.1142 17.8791 38.5803 17.7877 38.0464C17.5585 36.7068 16.3374 35.9958 15.0541 36.458C14.4928 36.6607 13.9386 36.8856 13.3747 37.0813C12.1136 37.5178 10.833 37.0592 10.1598 35.9134C9.21928 34.3117 8.28944 32.7029 7.37115 31.0879C6.70329 29.913 6.95107 28.5813 7.98038 27.7021C8.43509 27.3143 8.90667 26.9459 9.36138 26.5581C10.3756 25.6948 10.3747 24.3021 9.36138 23.4406C8.92266 23.0678 8.47061 22.7119 8.031 22.34C6.93509 21.4138 6.69353 20.0928 7.40401 18.8532C8.30543 17.2798 9.21218 15.7091 10.126 14.1428C10.8436 12.9138 12.1314 12.4587 13.4671 12.9493C14.0168 13.1511 14.5603 13.3725 15.1145 13.5637C16.3463 13.9879 17.5594 13.2662 17.7823 11.985C17.8774 11.4405 17.9653 10.8951 18.0541 10.3497C18.2513 9.13401 18.9875 8.34067 20.1882 8.05203C20.2299 8.04229 20.2681 8.01661 20.3081 7.9989L20.309 7.99979ZM9.66866 20.2451C10.1074 20.6063 10.5248 20.9517 10.9431 21.2952C13.3996 23.3095 13.4005 26.6874 10.9466 28.7008C10.5221 29.0497 10.0985 29.4003 9.66955 29.7545C10.5754 31.3225 11.4662 32.8623 12.3525 34.4056C12.4351 34.549 12.5124 34.5773 12.6695 34.5145C13.1731 34.3144 13.6829 34.1311 14.1918 33.946C16.9369 32.9473 19.8489 34.6048 20.3845 37.4727C20.4999 38.0889 20.5994 38.7078 20.7068 39.3294H26.293C26.4049 38.6777 26.507 38.034 26.6251 37.3939C27.055 35.0687 29.3232 33.367 31.6571 33.6981C32.4333 33.8079 33.1846 34.1196 33.9369 34.3693C34.5434 34.5703 34.5372 34.5906 34.8507 34.0487C35.674 32.6232 36.4973 31.1968 37.3303 29.7527C36.8862 29.387 36.4529 29.0275 36.0186 28.6707C33.6145 26.6989 33.6127 23.2998 36.0141 21.3306C36.4502 20.9729 36.8836 20.6134 37.333 20.2433C36.4235 18.6717 35.5239 17.1107 34.6118 15.5577C34.5772 15.4984 34.4049 15.47 34.3205 15.4984C33.7557 15.6914 33.2033 15.9198 32.6367 16.1067C29.9537 16.9903 27.1296 15.3151 26.6172 12.5429C26.5017 11.9178 26.3987 11.29 26.2912 10.6737H20.7033C20.5905 11.3334 20.491 11.9771 20.3703 12.6172C19.8969 15.1088 17.3756 16.7973 14.8996 16.2377C14.15 16.0686 13.4333 15.7525 12.7042 15.4948C12.5541 15.4417 12.4537 15.4107 12.3525 15.5869C11.4688 17.132 10.5763 18.6708 9.66777 20.2433L9.66866 20.2451Z" fill="white"/>
<path d="M23.5028 31.5565C19.9042 31.561 16.9459 28.6108 16.937 25.0107C16.9282 21.4026 19.9042 18.4302 23.5143 18.4435C27.1226 18.4568 30.0685 21.4079 30.0631 25.0053C30.0587 28.6063 27.1075 31.5521 23.5028 31.5565ZM23.4948 21.0989C21.3651 21.1042 19.6049 22.86 19.5969 24.9885C19.588 27.1233 21.3704 28.9056 23.5063 28.9003C25.636 28.895 27.3953 27.1383 27.4051 25.0107C27.4139 22.875 25.6342 21.0945 23.4948 21.0998V21.0989Z" fill="white"/>
</g>
<defs>
<clipPath id="clip0_35_21">
<rect width="33" height="34" fill="white" transform="translate(7 8)"/>
</clipPath>
</defs>
</svg>
