<svg width="18" height="18" viewBox="0 0 18 18" fill="none" xmlns="http://www.w3.org/2000/svg">
<g clip-path="url(#clip0_17_115)">
<path d="M18.0002 9.36947C17.8963 9.67835 17.7566 9.96576 17.5112 10.1905C17.1953 10.48 16.825 10.6332 16.3958 10.6395C16.3081 10.6409 16.2201 10.6395 16.1011 10.6395C16.1011 10.7142 16.1011 10.7811 16.1011 10.8484C16.1011 12.5742 16.1039 14.3 16.0997 16.0259C16.0972 16.9705 15.499 17.732 14.5967 17.9451C14.4386 17.9824 14.2717 17.9961 14.1087 17.9968C13.1933 18.0018 12.2775 17.9996 11.3621 17.9989C10.9639 17.9989 10.7523 17.7894 10.752 17.3924C10.7509 16.0424 10.7368 14.6921 10.7583 13.3424C10.7674 12.7535 10.3664 12.3097 9.73762 12.3333C9.24541 12.352 8.7518 12.3358 8.25889 12.3375C7.64487 12.3393 7.28821 12.6975 7.28751 13.3135C7.28645 14.6579 7.28751 16.0019 7.28716 17.3463C7.28716 17.8052 7.09246 17.9993 6.6344 17.9993C5.74224 17.9993 4.85042 18.0004 3.95826 17.9993C2.77598 17.9975 1.94014 17.1653 1.93874 15.984C1.93627 14.2817 1.93803 12.5795 1.93803 10.8769C1.93803 10.8072 1.93803 10.7374 1.93803 10.6586C1.73735 10.6416 1.5437 10.6424 1.35745 10.6061C0.729346 10.4835 0.299459 10.1119 0.0956053 9.50894C-0.106136 8.91195 0.017444 8.36356 0.424446 7.88174C0.477258 7.81904 0.537111 7.76198 0.594852 7.70387C2.8897 5.40817 5.1856 3.11423 7.47833 0.816421C7.80964 0.484288 8.13144 0.144758 8.59759 0H9.44293C9.88796 0.142997 10.2055 0.458576 10.5256 0.779791C12.782 3.04273 15.041 5.30321 17.3045 7.55911C17.6076 7.86131 17.8801 8.17407 18.0005 8.59461L18.0002 9.36947ZM11.8078 16.9427H12.0223C12.6912 16.9427 13.3612 16.9226 14.0291 16.9487C14.6178 16.9715 15.0589 16.5602 15.0519 15.9234C15.0315 14.0158 15.0441 12.1079 15.0448 10.2003C15.0448 9.79212 15.2536 9.58537 15.6638 9.58396C15.9103 9.58326 16.1571 9.58925 16.4032 9.58115C16.6408 9.5734 16.8137 9.45224 16.9168 9.23915C17.0207 9.0243 16.995 8.81615 16.857 8.62455C16.8059 8.55375 16.7401 8.49317 16.6781 8.43083C14.3048 6.05624 11.9311 3.68235 9.55736 1.3081C9.16655 0.917153 8.87256 0.918914 8.47718 1.31409C6.31507 3.4763 4.1526 5.63887 1.99049 7.80143C1.74157 8.05044 1.49019 8.29734 1.24444 8.54952C1.05889 8.73972 1.00502 8.9676 1.10924 9.21344C1.2131 9.45787 1.40921 9.5815 1.67714 9.58291C1.89437 9.58431 2.11125 9.58326 2.32849 9.58361C2.79921 9.58361 2.99427 9.77627 2.99427 10.2426C2.99427 12.1329 3.00905 14.0232 2.98652 15.9128C2.97842 16.5883 3.44774 16.9726 4.01635 16.949C4.68424 16.9215 5.35425 16.9427 6.0232 16.9427H6.23057C6.23057 16.8553 6.23057 16.7863 6.23057 16.7176C6.23198 15.5201 6.22071 14.3226 6.23867 13.1254C6.25275 12.1991 7.00761 11.3735 7.93287 11.3119C8.65674 11.2636 9.38625 11.3024 10.1133 11.3042C10.1654 11.3042 10.2182 11.3165 10.2693 11.3281C11.1917 11.5356 11.8008 12.2928 11.8057 13.2564C11.8117 14.4068 11.8071 15.5574 11.8075 16.7081C11.8075 16.7778 11.8078 16.8465 11.8078 16.9427Z" fill="#131313"/>
</g>
<defs>
<clipPath id="clip0_17_115">
<rect width="18" height="18" fill="white"/>
</clipPath>
</defs>
</svg>
