<svg width="15" height="18" viewBox="0 0 15 18" fill="none" xmlns="http://www.w3.org/2000/svg">
<g clip-path="url(#clip0_17_119)">
<path d="M2.77337 18C2.56342 17.9556 2.34994 17.9239 2.14439 17.8644C0.867503 17.495 0.0673039 16.5131 0.0114044 15.1727C-0.0466959 13.7817 0.105157 12.4106 0.634222 11.1081C0.975781 10.2671 1.47095 9.54009 2.30152 9.09537C2.81386 8.82104 3.36362 8.69159 3.93802 8.7026C4.11936 8.70612 4.30995 8.79771 4.47544 8.88797C4.74218 9.03284 4.9891 9.21337 5.24791 9.37321C6.7528 10.3032 8.25857 10.3019 9.76213 9.37013C9.9712 9.24067 10.1842 9.11562 10.3801 8.96855C10.7402 8.69863 11.1358 8.66517 11.5637 8.7277C12.7305 8.89942 13.5549 9.53877 14.1108 10.559C14.6069 11.4696 14.8305 12.459 14.9295 13.4783C14.9806 14.0019 15.0048 14.5303 14.9982 15.056C14.9793 16.6262 13.9022 17.7948 12.3406 17.967C12.3018 17.9714 12.2644 17.9886 12.2261 18H2.77337ZM7.49666 16.9455C8.90207 16.9455 10.3075 16.9468 11.7129 16.9441C11.9057 16.9441 12.0993 16.9322 12.2904 16.9102C13.1685 16.8076 13.8102 16.1965 13.9172 15.3259C14.0043 14.6188 13.9374 13.9103 13.8371 13.208C13.7323 12.4757 13.5611 11.7606 13.2055 11.1015C12.786 10.3234 12.1803 9.81794 11.2648 9.76554C11.1838 9.76069 11.0888 9.78139 11.0196 9.82278C10.7538 9.98218 10.4976 10.1579 10.234 10.3212C9.5108 10.769 8.72469 11.0429 7.87695 11.1081C6.71583 11.1979 5.65506 10.8813 4.67791 10.2618C4.44551 10.1147 4.21575 9.96368 3.98203 9.81794C3.93405 9.78799 3.87507 9.75497 3.8227 9.75717C3.25402 9.78359 2.74344 9.9606 2.33366 10.3705C2.00618 10.6981 1.77378 11.0914 1.603 11.518C1.13996 12.6761 1.02552 13.8923 1.06381 15.1221C1.09022 15.9688 1.56031 16.5831 2.31253 16.8094C2.61007 16.8988 2.9327 16.9375 3.24477 16.9402C4.66163 16.9534 6.07892 16.9459 7.49622 16.9459L7.49666 16.9455Z" fill="black"/>
<path d="M11.7244 4.32969C11.7442 6.69247 9.78989 8.66776 7.39942 8.67481C5.02435 8.68185 3.06963 6.74971 3.05598 4.34906C3.04234 1.9559 4.96625 0.016718 7.37125 -1.42595e-05C9.76965 -0.0167466 11.7134 1.91628 11.7244 4.32925V4.32969ZM7.36377 7.61627C9.13714 7.65458 10.6588 6.17068 10.675 4.36139C10.6909 2.59173 9.26611 1.10168 7.46896 1.05632C5.63924 1.01009 4.16077 2.43542 4.10883 4.27377C4.05821 6.05884 5.54373 7.62419 7.36377 7.61627Z" fill="black"/>
</g>
<defs>
<clipPath id="clip0_17_119">
<rect width="15" height="18" fill="white"/>
</clipPath>
</defs>
</svg>
