<svg width="17" height="18" viewBox="0 0 17 18" fill="none" xmlns="http://www.w3.org/2000/svg">
<g clip-path="url(#clip0_18_136)">
<path d="M11.1019 9.3476C11.321 9.44246 11.5236 9.52049 11.7173 9.61637C11.9859 9.74948 12.2556 9.88463 12.5123 10.0407C12.926 10.2921 13.0461 10.7817 12.8094 11.18C12.5743 11.5758 12.0935 11.6911 11.6802 11.4361C10.492 10.7022 9.20722 10.3849 7.82036 10.4512C5.23527 10.5747 2.84029 12.401 1.98276 14.9199C1.73861 15.6359 1.60953 16.3708 1.60002 17.1302C1.59352 17.6504 1.26131 17.9993 0.797524 17.9993C0.339241 17.9993 -0.0039707 17.6377 0.000532077 17.1481C0.0140404 15.6298 0.394776 14.2135 1.16275 12.9125C2.08682 11.3468 3.37562 10.2024 5.01963 9.47765C5.06466 9.45776 5.10869 9.43379 5.15572 9.41033C2.56562 7.56463 2.36499 3.81357 4.41426 1.62566C6.34645 -0.436785 9.48139 -0.559186 11.5226 1.37984C12.6749 2.47481 13.2307 3.84162 13.1507 5.45271C13.0706 7.06432 12.3442 8.33932 11.1024 9.34658L11.1019 9.3476ZM4.62389 5.18394C4.62389 7.14541 6.16334 8.72336 8.08202 8.72948C10.0047 8.7356 11.5657 7.15051 11.5687 5.18904C11.5717 3.22554 10.0227 1.63994 8.09653 1.63433C6.17385 1.62923 4.62339 3.21381 4.62389 5.18394Z" fill="black"/>
<path d="M12.7772 16.0201C13.4221 15.0323 14.055 14.0633 14.6884 13.0943C14.9721 12.6597 15.2518 12.2227 15.5419 11.7933C15.7571 11.474 16.1223 11.3577 16.465 11.4806C16.8027 11.6015 17.0324 11.9315 16.9953 12.291C16.9798 12.443 16.9253 12.6062 16.8427 12.7332C15.7941 14.3529 14.7384 15.9686 13.6808 17.5828C13.4036 18.0056 12.9418 18.0953 12.5216 17.8123C11.7356 17.2829 10.9521 16.7505 10.1706 16.2145C9.78388 15.9493 9.68382 15.4546 9.92897 15.0736C10.1746 14.6916 10.6579 14.5881 11.0482 14.8471C11.5655 15.1909 12.0753 15.5464 12.5886 15.8962C12.6446 15.9345 12.7022 15.9712 12.7767 16.0196L12.7772 16.0201Z" fill="black"/>
</g>
<defs>
<clipPath id="clip0_18_136">
<rect width="17" height="18" fill="white"/>
</clipPath>
</defs>
</svg>
