<svg width="46" height="49" viewBox="0 0 46 49" fill="none" xmlns="http://www.w3.org/2000/svg">
<rect width="46" height="49" rx="8" fill="#444CF7"/>
<path d="M22.6868 7.02989C22.8944 6.99004 23.1086 6.99004 23.3162 7.02989L36.7077 9.6864C37.4576 9.8325 38 10.49 38 11.2471C38 12.0042 37.4576 12.6617 36.7077 12.8078L31.5721 13.8305V17.6227C31.5721 22.3181 27.7354 26.1235 23.0015 26.1235C18.2676 26.1235 14.4309 22.3181 14.4309 17.6227V13.8305L11.2169 13.193V17.5165L12.2682 22.7232C12.3284 23.0354 12.2481 23.3608 12.0472 23.6065C11.8463 23.8522 11.5383 23.9983 11.2169 23.9983H9.0743C8.75291 23.9983 8.4516 23.8589 8.24403 23.6065C8.03646 23.3541 7.95611 23.0354 8.02307 22.7232L9.0743 17.5165V12.748C8.43821 12.5289 8.00298 11.9311 8.00298 11.2471C8.00298 10.49 8.54534 9.8325 9.29526 9.6864L22.6868 7.02989ZM15.4955 28.7601C16.1986 28.5343 16.9552 28.7867 17.4641 29.3246L22.2181 34.3388C22.6399 34.7838 23.3564 34.7838 23.7782 34.3388L28.5322 29.3246C29.0411 28.7867 29.7977 28.5343 30.5007 28.7601C34.853 30.1482 38 34.1861 38 38.9611C38 40.0901 37.076 41 35.9444 41H10.0586C8.927 41 8.00298 40.0835 8.00298 38.9611C8.00298 34.1861 11.15 30.1482 15.4955 28.7601Z" fill="white"/>
</svg>
