<svg width="46" height="49" viewBox="0 0 46 49" fill="none" xmlns="http://www.w3.org/2000/svg">
<rect width="46" height="49" rx="8" fill="#0062FF"/>
<g clip-path="url(#clip0_23_5)">
<path d="M14.4286 16.5C14.4286 18.7543 15.3316 20.9163 16.9391 22.5104C18.5465 24.1045 20.7267 25 23 25C25.2733 25 27.4535 24.1045 29.0609 22.5104C30.6684 20.9163 31.5714 18.7543 31.5714 16.5C31.5714 14.2457 30.6684 12.0837 29.0609 10.4896C27.4535 8.89553 25.2733 8 23 8C20.7267 8 18.5465 8.89553 16.9391 10.4896C15.3316 12.0837 14.4286 14.2457 14.4286 16.5ZM20.7567 29.7945L22.0022 31.8531L19.7723 40.0809L17.3616 30.3258C17.2277 29.7879 16.7054 29.4359 16.1629 29.5754C11.4754 30.7375 8 34.9477 8 39.9613C8 41.0902 8.92411 42 10.0558 42H18.8817C18.8817 42 18.8817 42 18.8884 42H19.25H26.75H27.1183C27.1183 42 27.1183 42 27.125 42H35.9442C37.0826 42 38 41.0836 38 39.9613C38 34.9477 34.5246 30.7375 29.8371 29.5754C29.2946 29.4426 28.7723 29.7945 28.6384 30.3258L26.2277 40.0809L23.9978 31.8531L25.2433 29.7945C25.6719 29.084 25.1562 28.1875 24.3259 28.1875H23H21.6808C20.8504 28.1875 20.3348 29.0906 20.7634 29.7945H20.7567Z" fill="white"/>
</g>
<defs>
<clipPath id="clip0_23_5">
<rect width="30" height="34" fill="white" transform="translate(8 8)"/>
</clipPath>
</defs>
</svg>
